<svg width="430" height="430" xmlns="http://www.w3.org/2000/svg">

 <g>
  <title>background</title>
  <rect fill="none" id="canvas_background" height="514" width="514" y="-1" x="-1"/>
 </g>
 <g>
  <title>Layer 1</title>
  <path fill="#ffffff" id="svg_1" d="m215,0c-118.549004,0 -215,96.450996 -215,215s96.450996,215 215,215s215,-96.450989 215,-215s-96.450989,-215 -215,-215zm169.910004,285.942993c-21.13501,50.438995 -64.104004,89.546997 -117.031982,105.44101c0.948975,-1.761993 1.867981,-3.542999 2.756989,-5.343994c4.546997,-9.201996 9.325012,-15.690033 17.343994,-22.161011c6.136993,-4.955994 18.186005,-12.631989 16.216003,-22.311005c-1.42099,-6.994995 -9.406982,-9.86499 -15.441986,-11.574982c-9.575012,-2.713013 -19.818024,-3.416016 -29.699005,-4.100006c-8.557007,-0.597992 -17.443024,-0.292999 -25.797012,-2.424011c-12.501999,-3.182007 -15.319992,-14.003998 -16.111008,-25.412018c-0.705002,-10.140991 -0.554001,-20.566986 -5.541,-29.743988c-6.421997,-11.810974 -21.201981,-15.169983 -33.457993,-16.296997c-10.346008,-0.947006 -20.679001,-0.447998 -30.969009,-2.171997c-9.899979,-1.658005 -19.275993,-5.13501 -29.441986,-4.740997c-13.174995,0.507996 -19.091995,9.437988 -24.711998,19.764984c-2.774002,5.100006 -20.295998,44.321014 -30.591,53.115021c-17.751999,-26.207001 -28.918999,-57.214996 -31.143,-90.632019c1.455,-0.391998 2.897001,-0.934998 4.360998,-1.663986c5.728001,-2.844009 9.741001,-7.978012 15.974003,-10.011002c5.942997,-1.936005 13.620998,-0.219009 19.692997,0.375992c6.042,0.591003 12.178001,1.21701 18.224998,0.393997c12.071007,-1.648987 18.467003,-9.987 20.395004,-21.626999c1.145996,-6.952988 0.251999,-13.944992 0.459,-20.945999c0.326996,-10.908997 7.486,-14.822998 17.350998,-15.750992c18.633995,-1.75 62.101006,3.188004 62.980995,-25.490005c0.375,-12.266998 -14.224991,-18.598 -23.733994,-21.872002c-18.516006,-6.369995 -38.746994,-4.145996 -57.684998,-8.570999c-10.073006,-2.353996 -18.569,-8.637001 -25.693001,-16.062996c33.443985,-34.078991 79.980995,-55.261992 131.382988,-55.261992c10.994003,0 21.755005,0.969999 32.218994,2.828001c-5.349991,0.993999 -10.630997,2.405998 -15.768997,4.480999c-27.106995,10.929001 -27.923004,41.682003 -16.074997,64.785c7.348007,14.328003 19.248001,26.331993 31.677994,36.314003c12.033005,9.658997 25.181015,15.367004 38.522995,22.694c17.701019,9.733002 15.564026,35.151001 20.042023,52.276993c3.776978,14.443008 12.846985,26.626999 27.142975,31.626999c8.643005,3.020004 18.795013,0.66301 26.363007,6.684998c6.5,5.157013 8.027008,15.71402 11.742004,22.809021c3.700012,7.078979 8.625,10.05899 14.044006,10.578979z"/>
  <g id="svg_2"/>
  <g id="svg_3"/>
  <g id="svg_4"/>
  <g id="svg_5"/>
  <g id="svg_6"/>
  <g id="svg_7"/>
  <g id="svg_8"/>
  <g id="svg_9"/>
  <g id="svg_10"/>
  <g id="svg_11"/>
  <g id="svg_12"/>
  <g id="svg_13"/>
  <g id="svg_14"/>
  <g id="svg_15"/>
  <g id="svg_16"/>
 </g>
</svg>