<svg width="122.88" height="74.78" xmlns="http://www.w3.org/2000/svg">

 <g>
  <title>background</title>
  <rect fill="none" id="canvas_background" height="514" width="514" y="-1" x="-1"/>
 </g>
 <g>
  <title>Layer 1</title>
  <g fill="white" id="svg_1">
   <path id="svg_2" d="m28.690001,53.380001c-1.610001,0 -2.91,-1.299999 -2.91,-2.91c0,-1.610001 1.299999,-2.91 2.91,-2.91l51.369997,0c0.209999,0 0.420006,0.02 0.620003,0.07c1.839996,0.279999 3.559998,0.799999 5.099998,1.629997c1.700005,0.920002 3.150002,2.190002 4.270004,3.890003c3.849998,5.829998 3.279999,11.239998 0.559998,15.239998c-1.770004,2.610001 -4.470001,4.550003 -7.449997,5.57c-3,1.029999 -6.320007,1.129997 -9.320007,0.029999c-4.539993,-1.659996 -8.219994,-5.889999 -8.759995,-13.549999c-0.110001,-1.599998 1.099998,-2.98 2.699997,-3.09c1.599998,-0.109997 2.980003,1.100002 3.090004,2.700001c0.349998,4.939999 2.409996,7.560001 4.939995,8.48c1.709999,0.620003 3.670006,0.540001 5.480003,-0.080002c1.839996,-0.629997 3.479996,-1.789993 4.519997,-3.32c1.490005,-2.189999 1.709999,-5.279999 -0.610001,-8.789997c-0.57,-0.860001 -1.309998,-1.509998 -2.18,-1.98c-0.909996,-0.490002 -1.969994,-0.810001 -3.129997,-0.990002l-51.199999,0l0,0.010002zm-13.280001,-26.170002c-1.61,0 -2.91,-1.299999 -2.91,-2.91c0,-1.609999 1.3,-2.91 2.91,-2.91l51.210003,0c1.169998,-0.18 2.229996,-0.5 3.139999,-0.99c0.869995,-0.469999 1.610001,-1.119999 2.18,-1.98c2.32,-3.51 2.089996,-6.6 0.610001,-8.79c-1.040001,-1.53 -2.68,-2.69 -4.520004,-3.32c-1.809998,-0.62 -3.779999,-0.7 -5.48,-0.08c-2.52,0.92 -4.59,3.54 -4.939999,8.48c-0.110001,1.599999 -1.490002,2.81 -3.09,2.7c-1.600002,-0.110001 -2.810001,-1.49 -2.700001,-3.09c0.540001,-7.66 4.220001,-11.89 8.760002,-13.55c3,-1.09 6.32,-0.99 9.32,0.03c2.979996,1.02 5.68,2.97 7.449997,5.57c2.720001,4 3.290001,9.41 -0.559998,15.240001c-1.120003,1.699999 -2.57,2.969999 -4.270004,3.889999c-1.539993,0.83 -3.259995,1.35 -5.099998,1.629999c-0.199997,0.040001 -0.409996,0.070002 -0.619995,0.070002l-51.390003,0l0,0.009998zm-12.5,13.09c-1.61,0 -2.91,-1.309998 -2.91,-2.91c0,-1.610001 1.3,-2.91 2.91,-2.91l107.070003,0c1.169998,-0.18 2.229996,-0.5 3.129997,-0.989998c0.870003,-0.470001 1.610001,-1.120003 2.18,-1.980001c2.32,-3.51 2.089996,-6.6 0.610001,-8.790001c-1.040001,-1.529999 -2.68,-2.689999 -4.520004,-3.32c-1.809998,-0.619999 -3.779999,-0.699999 -5.479996,-0.08c-2.520004,0.92 -4.590004,3.540001 -4.940002,8.48c-0.110001,1.6 -1.489998,2.810001 -3.089996,2.700001c-1.600006,-0.110001 -2.810005,-1.49 -2.700005,-3.09c0.540001,-7.66 4.220001,-11.889999 8.760002,-13.55c3,-1.089999 6.32,-0.99 9.32,0.030001c2.980003,1.02 5.68,2.97 7.449997,5.569999c2.720001,4 3.290001,9.410002 -0.559998,15.240002c-1.120003,1.700001 -2.57,2.969997 -4.269997,3.889999c-1.540001,0.829998 -3.260002,1.349998 -5.100006,1.630001c-0.199997,0.039997 -0.409996,0.07 -0.619995,0.07l-107.240001,0l0,0.009998z"/>
  </g>
 </g>
</svg>