<svg width="474.986" height="474.986" xmlns="http://www.w3.org/2000/svg">

 <g>
  <title>background</title>
  <rect fill="none" id="canvas_background" height="514" width="514" y="-1" x="-1"/>
 </g>
 <g>
  <title>Layer 1</title>
  <path fill="#ffffff" d="m440.903992,356.937012l-15.139008,-80.104004c-0.631989,-3.319977 -2.84198,-6.122986 -5.929993,-7.500977c-3.080994,-1.386017 -6.647003,-1.163025 -9.541992,0.576996l-69.815002,42.085968c-4.089996,2.46402 -5.95401,7.40802 -4.514008,11.952026c1.43399,4.552002 5.799011,7.514984 10.55899,7.18399l27.269012,-1.902008c-26.036987,34.993011 -65.22699,49.355011 -110.178009,53.036011l0,-229.162018l22.449005,0c3.619995,2.695007 8.070007,4.343002 12.929016,4.343002c12.020996,0 21.770996,-9.742004 21.770996,-21.763992c0,-12.029007 -9.75,-21.771004 -21.770996,-21.771004c-4.867004,0 -9.318024,1.655998 -12.938019,4.350998l-22.44101,0l0,-31.473c12.776001,-8.494003 21.231018,-22.987003 21.231018,-39.436001c0.001007,-26.106001 -21.243988,-47.353001 -47.350998,-47.353001c-26.106995,0 -47.353989,21.247 -47.353989,47.353001c0,16.448997 8.455994,30.941998 21.230988,39.436001l0,31.473999l-22.440002,0c-3.619995,-2.695 -8.069992,-4.350998 -12.936996,-4.350998c-12.020996,0 -21.770996,9.741997 -21.770996,21.770996c0,12.020996 9.75,21.764008 21.770996,21.764008c4.859009,0 9.309006,-1.64801 12.929001,-4.343002l22.447998,0l0,229.162018c-44.949997,-3.681 -84.139992,-18.042999 -110.176003,-53.036011l27.269005,1.902008c4.758987,0.330994 9.125,-2.632019 10.557999,-7.184021c1.439987,-4.542999 -0.423004,-9.487976 -4.513,-11.951996l-69.816002,-42.085999c-2.896004,-1.73999 -6.461002,-1.962982 -9.542004,-0.576996c-3.088001,1.377991 -5.298,4.181 -5.93,7.501007l-15.139999,80.103973c-0.886002,4.689026 1.555,9.372009 5.905998,11.327026c4.351002,1.964996 9.472,0.685974 12.399002,-3.088013l16.286999,-21.007996c31.843002,51.565002 81.913994,94.735992 139.663994,105.942017l21.854004,21.853973c4.035995,4.028015 10.565002,4.028015 14.594009,0l21.854004,-21.853973c57.75,-11.197998 107.828003,-54.377014 139.671997,-105.942017l16.286987,21.007996c2.927002,3.773987 8.048004,5.053009 12.39801,3.088013c4.354004,-1.956024 6.795013,-6.639008 5.908997,-11.328003zm-203.410995,-322.098011c6.900009,0 12.513,5.613998 12.513,12.514c0,6.899998 -5.612991,12.514 -12.513,12.514c-6.899994,0 -12.514999,-5.614002 -12.514999,-12.514c0.001007,-6.900002 5.615005,-12.514 12.514999,-12.514z" id="XMLID_3_"/>
  <g id="svg_1"/>
  <g id="svg_2"/>
  <g id="svg_3"/>
  <g id="svg_4"/>
  <g id="svg_5"/>
  <g id="svg_6"/>
  <g id="svg_7"/>
  <g id="svg_8"/>
  <g id="svg_9"/>
  <g id="svg_10"/>
  <g id="svg_11"/>
  <g id="svg_12"/>
  <g id="svg_13"/>
  <g id="svg_14"/>
  <g id="svg_15"/>
 </g>
</svg>