<svg width="122.88" height="122.88" xmlns="http://www.w3.org/2000/svg">

 <g>
  <title>background</title>
  <rect fill="none" id="canvas_background" height="514" width="514" y="-1" x="-1"/>
 </g>
 <g>
  <title>Layer 1</title>
  <g id="svg_1">
   <path fill="#ffffff" id="svg_2" d="m68.230003,13.49c10.439995,1.49 19.789993,6.360001 26.909996,13.48c7.290001,7.289999 12.230003,16.930002 13.580002,27.680002l14.169998,0l0,13.580002l-14.389999,0c-1.620003,10.129997 -6.419998,19.199997 -13.360001,26.129997c-7.110001,7.110001 -16.470001,11.989998 -26.909996,13.479996l0,15.040001l-13.580002,0l0,-15.040001c-10.440002,-1.489998 -19.790001,-6.359993 -26.900002,-13.479996c-6.940001,-6.940002 -11.74,-16 -13.36,-26.129997l-14.39,0l0,-13.580002l14.16,0c1.35,-10.75 6.290001,-20.390003 13.58,-27.680002c7.109999,-7.109999 16.460001,-11.99 26.9,-13.48l0,-13.49l13.580002,0l0,13.49l0.010002,0zm-6.790005,21.92c13.950001,0 25.250004,11.310001 25.250004,25.25c0,13.950001 -11.310005,25.250004 -25.250004,25.250004c-13.949997,0 -25.25,-11.310005 -25.25,-25.250004c0,-13.939999 11.300003,-25.25 25.25,-25.25l0,0zm27.560001,-2.299999c-7.050003,-7.050001 -16.800003,-11.42 -27.560001,-11.42c-10.759998,0 -20.509998,4.359999 -27.559998,11.42c-7.050001,7.049999 -11.420002,16.799999 -11.420002,27.559998c0,10.760002 4.360001,20.510002 11.420002,27.560005c7.049999,7.049995 16.799999,11.419998 27.559998,11.419998c10.759998,0 20.509998,-4.360001 27.560001,-11.419998c7.050003,-7.050003 11.419998,-16.800003 11.419998,-27.560005c-0.009995,-10.769997 -4.369995,-20.509998 -11.419998,-27.559998l0,0z"/>
  </g>
 </g>
</svg>